<svg xmlns="http://www.w3.org/2000/svg" viewBox="0 0 283.5 283.5">

	<path d="M228.8 281.8H54.7c-29.2 0-53-23.8-53-53V54.7c0-29.2 23.8-53 53-53h174c29.3 0 53 23.8 53 53v174C281.8 258 258 281.8 228.8 281.8zM54.7 26.7c-15.5 0-28 12.6-28 28v174c0 15.5 12.6 28 28 28h174c15.5 0 28-12.6 28-28V54.7c0-15.5-12.6-28-28-28H54.7z"/>

	<path fill="#555" d="M126.1 93.5h1.2c1.8 0 3.5 1.2 4.7 1.8 4.7 2.4 6.5 6.5 7.7 10 1.2 3.5 1.8 7.7 2.4 11.8 0.6 8.3 0.6 18.3 1.2 27.1s1.2 17.7 3 23c1.2 2.4 1.8 4.1 2.4 4.7s1.2 0.6 3 0.6c11.8 0 30.1-13 44.3-28.3 14.2-15.3 23.6-30.7 23.6-30.7 1.2-2.4 4.7-3.5 7.1-3.5 4.7 0 8.9 3.5 8.9 8.3 0 1.2-1.2 3.5-1.8 4.7 0 0-10 15.9-25.4 32.5s-34.8 34.2-56.6 34.2c-5.3 0-10.6-2.4-14.2-5.3 -3.5-2.9-5.3-7.7-7.1-11.8 -2.9-8.3-3.5-18.3-4.1-27.7 -0.6-9.4 0-18.9-0.6-26 0-2.4-0.6-4.7-1.2-6.5 -1.2 1.2-2.9 3-4.7 5.3 -5.3 7.1-12.4 17.7-18.9 28.3 -6.5 10.6-13.6 21.8-19.5 30.1 -2.9 4.1-5.9 7.1-9.4 10 -1.8 1.2-3.5 3-5.9 3.5 -2.4 0.6-6.5 0.6-9.4-1.2 -4.1-2.4-5.3-5.9-6.5-9.4 -1.2-3.5-1.8-7.1-1.8-10.6 0-7.1 1.8-15.3 3-23 3-15.3 7.1-29.5 7.1-29.5 1.2-3.5 4.7-5.9 8.3-5.9 4.7 0 8.3 3.5 8.3 8.3 0 0.6-0.6 1.8-0.6 2.4 0 0-3.5 13.6-6.5 27.7 -1.2 7.1-2.4 14.8-2.4 20.1v0.6c0.6-1.2 1.8-1.8 2.4-2.9 5.3-7.1 12.4-18.3 18.9-28.9 6.5-10.6 13.6-21.8 20.1-30.1 3.5-4.1 6.5-7.7 10-10 1.8-1.2 4.1-2.4 6.5-2.9C124.3 94.1 124.9 93.5 126.1 93.5z"/>

</svg>